<?xml version="1.0" encoding="utf-8"?>
<!-- Generator: Adobe Illustrator 25.2.3, SVG Export Plug-In . SVG Version: 6.00 Build 0)  -->
<svg width="30px" version="1.1" id="Capa_1" xmlns="http://www.w3.org/2000/svg" xmlns:xlink="http://www.w3.org/1999/xlink" x="0px" y="0px"
	 viewBox="0 0 512 512" style="enable-background:new 0 0 512 512;" xml:space="preserve">
<style type="text/css">
	.st0{fill:#62BF8A;}
</style>
<g>
	<path class="st0" d="M126,121c0,22.1,17.9,40,40,40s40-17.9,40-40s-17.9-40-40-40S126,98.9,126,121z M186,121c0,11-9,20-20,20
		c-11,0-20-9-20-20s9-20,20-20C177,101,186,110,186,121z"/>
	<path class="st0" d="M66,121c0,55.1,44.9,100,100,100c39.9,0,75.9-23.8,91.7-60H442c1.6,0,3.1-0.4,4.5-1.1l60-30
		c2.9-1.4,4.9-4.2,5.4-7.3s-0.5-6.4-2.8-8.7l-60-60c-3.9-3.9-10.2-3.9-14.1,0L412,76.9l-22.9-22.9c-3.9-3.9-10.2-3.9-14.1,0
		L352,76.9l-22.9-22.9c-3.9-3.9-10.2-3.9-14.1,0L287.9,81h-30.2c-15.8-36.2-51.8-60-91.7-60C110.9,21,66,65.9,66,121L66,121z
		 M241.4,94.3c1.4,4,5.2,6.7,9.4,6.7H292c2.7,0,5.2-1.1,7.1-2.9L322,75.1l22.9,22.9c3.9,3.9,10.2,3.9,14.1,0L382,75.1l22.9,22.9
		c3.9,3.9,10.2,3.9,14.1,0L442,75.1l43.1,43.1L439.6,141H250.9c-4.2,0-8,2.7-9.4,6.7C230.2,179.6,199.8,201,166,201
		c-44.1,0-80-35.9-80-80s35.9-80,80-80C199.8,41,230.2,62.4,241.4,94.3L241.4,94.3z"/>
	<circle class="st0" cx="392" cy="403" r="10"/>
	<path class="st0" d="M414.5,298.4l-57.2,38c-7-12.2-20.1-20.4-34.8-20.4h-48.7c-5,0-9.6-1.7-13.2-4.9l-7-6.2
		c-37.7-33.1-94.5-33.1-132.1,0l-15.1,13.3L80,336.8V331c0-5.5-4.5-10-10-10H10c-5.5,0-10,4.5-10,10v150c0,5.5,4.5,10,10,10h60
		c5.5,0,10-4.5,10-10v-25h31.4L284,490.8c0.7,0.1,1.3,0.2,2,0.2c2.1,0,4.2-0.7,5.9-1.9l69.8-51.3c4.4-3.3,5.4-9.5,2.1-14
		c-3.3-4.4-9.5-5.4-14-2.1l-66.2,48.7l-169.2-34.1c-0.6-0.1-1.3-0.2-2-0.2H80v-74.7c42.7-30.2,35.4-24.1,54.6-41.3
		c30.1-26.5,75.6-26.5,105.7,0l7,6.2c7.2,6.4,16.6,9.9,26.4,9.9h48.7c11,0,20,9.1,20,20.1c0,11-9,19.9-20,19.9h-120
		c-5.5,0-10,4.5-10,10s4.5,10,10,10h120c21.8,0,39.5-17.4,40-39l63.1-41.9c19.8-13.1,45.3-10.4,61.9,5.4l-65.1,47.9
		c-4.4,3.3-5.4,9.5-2.1,14c3.3,4.4,9.5,5.4,14,2.1l73.8-54.3c4.4-3.2,5.4-9.4,2.2-13.8C488.2,285.4,446.2,277.5,414.5,298.4
		L414.5,298.4z M60,471H20V341h40V471z"/>
</g>
</svg>
