<?xml version="1.0" encoding="utf-8"?>
<!-- Generator: Adobe Illustrator 25.2.3, SVG Export Plug-In . SVG Version: 6.00 Build 0)  -->
<svg version="1.1" id="Capa_1" xmlns="http://www.w3.org/2000/svg" xmlns:xlink="http://www.w3.org/1999/xlink" x="0px" y="0px"
	 viewBox="0 0 841.9 332.4" style="enable-background:new 0 0 841.9 332.4;" xml:space="preserve">
<style type="text/css">
	.st0{fill:#231F20;}
	.st1{fill:#58585A;}
</style>
<g>
	<path class="st0" d="M118.7,162.7c1.2,2.2,2.6,4.3,4.2,6.1c2.2,2.3,4.7,4.1,7.9,4.5c3.1,0.3,5.9-0.4,8.2-2.6
		c2.3-2.1,2.9-4.8,1.8-7.7c-0.6-1.7-1.7-3-2.9-4.3c-2.9-3-6.3-5.6-9.5-8.3c-4.6-3.8-9.1-7.7-13-12.2c-2.9-3.3-5-7.1-5.6-11.5
		c-0.8-5.7,0.6-10.8,4.4-15.2c5.3-6.1,12-8.4,19.9-7.7c6.2,0.5,11.3,3.3,15.8,7.5c1.7,1.6,3.2,3.2,4.7,4.9c0.5,0.5,0.4,0.7-0.1,1.2
		c-3.4,3-6.8,6.1-10.2,9.1c-0.4,0.4-0.6,0.4-1-0.1c-1.6-2.2-3.3-4.1-5.5-5.7c-2.7-1.9-5.6-2.7-8.8-1.8c-2.7,0.8-4.5,3.1-4.2,5.5
		c0.2,1.6,1,2.9,2.1,4c2.7,2.7,5.6,5.2,8.5,7.7c3.9,3.4,8,6.6,11.8,10.1c3.4,3.2,6.4,6.6,8,11.1c4.6,13.1-2.1,26.7-16.5,29.9
		c-7.2,1.6-14.2,1-20.8-2.8c-4.1-2.4-7.2-5.8-9.7-9.7c-0.7-1.2-1.4-2.4-2.1-3.6c-0.2-0.4-0.2-0.6,0.2-0.8
		C110.4,167.7,114.5,165.2,118.7,162.7z"/>
	<path class="st0" d="M602,187.8c-8.7-0.2-17-2-24.4-7c-9.6-6.6-15.5-15.7-17.5-27.1c-1.4-7.9-1.1-15.7,1.9-23.2
		c5.3-13.3,15.1-21.8,28.9-25.3c10.5-2.7,21-2,31.1,2.4c6.3,2.7,11.6,6.9,15.7,12.4c0.4,0.6,0.5,0.8-0.1,1.3c-1.7,1.2-3.4,2.5-5,3.8
		c-0.5,0.4-0.8,0.4-1.2-0.1c-5.1-6.4-11.6-10.7-19.6-12.4c-13.4-2.8-25.3,0.2-35,10.1c-6.5,6.6-9,14.8-8.9,24
		c0.2,17.5,13.2,30,27.5,32.6c14.1,2.5,26.3-1.1,36-11.9c0.4-0.5,0.6-0.6,1.2-0.1c1.7,1.4,3.5,2.7,5.2,3.9c0.5,0.4,0.4,0.6,0.1,1
		c-6.5,8.1-15,12.9-25.1,14.9C609.2,187.7,605.6,187.9,602,187.8z"/>
	<path class="st0" d="M510.8,187.8c-8.7-0.2-16.9-2-24.2-6.9c-9.7-6.6-15.6-15.7-17.6-27.2c-1.4-7.9-1.1-15.7,1.9-23.2
		c5.3-13.3,15.1-21.8,28.9-25.4c10.5-2.7,21-2,31.1,2.4c6.4,2.8,11.7,7,15.9,12.5c0.4,0.5,0.4,0.7-0.1,1.1c-1.7,1.3-3.5,2.6-5.1,3.9
		c-0.5,0.4-0.7,0.4-1.1-0.1c-4.9-6.2-11.1-10.4-18.8-12.2c-13.7-3.1-25.9-0.2-35.9,10c-6.4,6.6-8.9,14.8-8.8,23.9
		c0.2,17.6,13.3,30,27.5,32.6c10.2,1.9,19.9,0.6,28.6-5.4c2.8-1.9,5.2-4.1,7.4-6.6c0.4-0.5,0.6-0.5,1.1-0.1c1.7,1.3,3.4,2.6,5.2,3.9
		c0.5,0.4,0.6,0.6,0.2,1.1c-6.1,7.5-14,12.2-23.4,14.5C519.2,187.6,515,187.9,510.8,187.8z"/>
	<path class="st0" d="M269.4,145.8c0-13.1,0-26.1,0-39.2c0-0.8,0.2-1,1-1c2.2,0.1,4.4,0,6.6,0c0.5,0,0.7,0.1,0.6,0.6
		c0,0.2,0,0.4,0,0.6c0,23.4,0,46.8,0,70.3c0,0.8,0.2,1,1,1c9.7,0,19.4,0,29.1,0c0.8,0,0.9,0.2,0.9,1c-0.1,2.1,0,4.1,0,6.2
		c0,0.5-0.1,0.7-0.7,0.7c-12.6,0-25.2,0-37.7,0c-0.8,0-0.7-0.4-0.7-0.9C269.4,172,269.4,158.9,269.4,145.8z"/>
	<path class="st0" d="M453.3,145.8c0,13.1,0,26.1,0,39.2c0,0.8-0.1,1-0.9,1c-2.1-0.1-4.2-0.1-6.3,0c-0.7,0-0.9-0.2-0.9-0.9
		c0-24.2,0-48.5,0-72.7c0-2,0-4.1,0-6.1c0-0.6,0.2-0.6,0.7-0.6c2.2,0,4.4,0,6.6,0c0.6,0,0.8,0.2,0.8,0.8c0,5,0,9.9,0,14.9
		C453.3,129.5,453.3,137.6,453.3,145.8z"/>
	<path class="st1" d="M337,226.5c-0.5,3.6-1,7-1.4,10.4c-0.4,2.8-0.8,5.5-1.1,8.3c-0.1,0.6-0.2,0.8-0.9,0.8c-1.9,0-1.9,0-1.6-1.9
		c1-6.8,1.9-13.6,2.9-20.4c0.2-1.4,0.4-2.9,0.6-4.3c0-0.2-0.1-0.6,0.3-0.6c0.3,0,0.4,0.3,0.5,0.5c2.4,4.9,4.9,9.8,7.3,14.7
		c1.1,2.3,2.3,4.6,3.4,6.9c0.4-0.2,0.4-0.6,0.6-0.9c3.3-6.8,6.7-13.6,10-20.4c0.1-0.1,0.1-0.3,0.2-0.4c0.1-0.2,0.1-0.5,0.5-0.4
		c0.4,0,0.3,0.4,0.4,0.6c0.3,1.7,0.5,3.4,0.7,5.1c1,6.8,1.9,13.5,2.9,20.3c0.2,1.3,0.2,1.3-1,1.3c-1.5,0-1.5,0-1.7-1.6
		c-0.8-5.9-1.6-11.8-2.4-17.7c-0.4,0.2-0.4,0.5-0.5,0.8c-2.9,5.9-5.8,11.7-8.7,17.6c-0.2,0.3-0.2,0.9-0.8,0.9
		c-0.6,0-0.6-0.5-0.8-0.9c-3-5.9-5.9-11.9-8.9-17.9C337.3,227.1,337.2,226.9,337,226.5z"/>
	<path class="st1" d="M312.9,239.5c0-1.7,0-3.2,0-4.7c0-5.1,0-10.2,0-15.3c0-0.6,0.1-0.8,0.8-0.8c1.9,0,1.9,0,1.9,1.9
		c0,8.1,0,16.2,0,24.3c0,0.4,0.3,0.9-0.2,1.1c-0.5,0.2-0.7-0.3-0.9-0.6c-5.4-6.2-10.9-12.4-16.3-18.7c-0.3-0.4-0.6-0.7-1.1-1.3
		c0,0.5,0,0.8,0,1.1c0,6.2,0,12.4,0,18.6c0,0.7-0.2,0.9-0.9,0.9c-1.9-0.1-1.9,0-1.9-2c0-8.1,0-16.2,0-24.3c0-0.3-0.2-0.8,0.2-1
		c0.5-0.2,0.7,0.3,1,0.6c5.7,6.6,11.5,13.2,17.2,19.8C312.6,239.3,312.7,239.3,312.9,239.5z"/>
	<path class="st1" d="M413.7,232.3c0-4.3,0-8.6,0-12.8c0-0.6,0.1-0.8,0.8-0.8c4.7,0,9.4,0,14.2,0c0.6,0,0.7,0.2,0.7,0.7
		c0,1.9,0,1.9-1.9,1.9c-3.4,0-6.8,0-10.1,0c-0.6,0-0.9,0.1-0.8,0.8c0,2.4,0,4.7,0,7.1c0,0.6,0.2,0.7,0.7,0.7c3.7,0,7.5,0,11.2,0
		c0.6,0,0.9,0.1,0.9,0.8c0,1.8,0,1.8-1.8,1.8c-3.4,0-6.8,0-10.1,0c-0.6,0-0.9,0.1-0.8,0.8c0,3.1,0,6.2,0,9.3c0,0.7,0.2,0.8,0.8,0.8
		c3.7,0,7.4,0,11.1,0c0.7,0,0.9,0.1,0.9,0.8c0,1.8,0,1.8-1.8,1.8c-4.3,0-8.5,0-12.8,0c-0.8,0-1-0.3-1-1
		C413.7,240.8,413.7,236.6,413.7,232.3z"/>
	<path class="st1" d="M505.1,232.4c0-4.3,0-8.6,0-12.8c0-0.7,0.2-0.8,0.8-0.8c4.7,0,9.3,0,14,0c0.6,0,0.9,0.1,0.8,0.8
		c0,1.8,0,1.8-1.8,1.8c-3.4,0-6.9,0-10.3,0c-0.6,0-0.8,0.1-0.8,0.8c0,2.4,0,4.7,0,7.1c0,0.7,0.2,0.7,0.8,0.7c3.7,0,7.5,0,11.2,0
		c0.6,0,0.8,0.1,0.8,0.8c0,1.8,0,1.8-1.8,1.8c-3.4,0-6.8,0-10.2,0c-0.6,0-0.8,0.1-0.8,0.8c0,3.1,0,6.1,0,9.2c0,0.7,0.1,0.9,0.9,0.9
		c3.7,0,7.4,0,11.1,0c0.7,0,0.8,0.2,0.8,0.8c0,1.8,0,1.8-1.8,1.8c-4.3,0-8.6,0-12.9,0c-0.6,0-0.8-0.1-0.8-0.8
		C505.1,240.9,505.1,236.6,505.1,232.4z"/>
	<path class="st1" d="M378.5,229c0-3.1,0-6.3,0-9.4c0-0.6,0.2-0.8,0.8-0.8c1.9,0,1.9,0,1.9,2c0,5.1,0,10.2,0,15.4
		c0,0.8,0,1.7,0.1,2.5c0.4,3.4,2.9,5.5,6.4,5.5c3.2,0,5.6-2.3,6-5.6c0.2-1.3,0.1-2.7,0.1-4c0-5,0-9.9,0-14.9c0-0.7,0.2-0.8,0.8-0.8
		c2,0,2,0,2,1.9c0,5,0,10,0,15c0,1.4-0.1,2.8-0.4,4.2c-1,4.7-4.9,7.4-9.7,6.8c-4.1-0.5-6.9-2.9-7.6-6.3c-0.3-1.6-0.3-3.2-0.3-4.9
		C378.5,233.3,378.5,231.1,378.5,229z"/>
	<path class="st1" d="M541.3,246.7c-2.4,0-4.4-0.9-5.9-2.7c-0.4-0.5-0.8-0.9-1.1-1.4c-1.3-1.8-1.2-2.1,0.9-3
		c0.5-0.2,0.5,0.1,0.6,0.3c0.7,1.2,1.5,2.4,2.7,3.3c2.8,2,6.8,0.6,7.6-2.8c0.3-1.4,0-2.7-0.9-3.9c-1.1-1.4-2.4-2.6-3.8-3.7
		c-1.5-1.2-3.1-2.3-4.4-3.7c-1.7-1.7-2.4-3.8-1.8-6.2c0.8-3.7,4.6-5.7,8.4-4.7c2.1,0.6,3.6,2,4.9,3.7c0.2,0.3,0.1,0.4-0.1,0.6
		c0,0-0.1,0.1-0.1,0.1c-0.6,0.4-1.1,1.1-1.7,1.1c-0.6,0-0.9-0.9-1.3-1.3c-0.9-0.9-1.8-1.6-3.1-1.8c-1.5-0.2-2.9,0.2-3.7,1.6
		c-0.9,1.3-0.7,2.7,0,4c0.5,0.8,1.1,1.5,1.9,2.1c1.7,1.3,3.4,2.6,5,3.9c1.7,1.4,3.1,3.1,3.7,5.3c1.2,4.4-2.3,8.9-7,9.1
		C541.7,246.7,541.5,246.7,541.3,246.7z"/>
	<path class="st1" d="M476.9,232.4c0-4.3,0-8.6,0-12.8c0-0.6,0.1-0.8,0.8-0.8c2,0,2,0,2,2c0,7.2,0,14.5,0,21.7
		c0,0.7,0.2,0.9,0.9,0.9c2.9,0,5.9,0,8.8,0c0.6,0,0.8,0.2,0.8,0.8c0,1.9,0,1.9-1.9,1.9c-3.5,0-7,0-10.5,0c-0.7,0-0.9-0.1-0.9-0.9
		C477,240.9,476.9,236.6,476.9,232.4z"/>
	<path class="st1" d="M274.8,232.3c0-4.2,0-8.4,0-12.6c0-0.6,0.1-0.9,0.8-0.9c1.9,0.1,1.9,0,1.9,1.9c0,8.1,0,16.3,0,24.4
		c0,0.8-0.2,1-1,0.9c-1.8-0.1-1.8,0-1.8-1.8C274.8,240.2,274.8,236.2,274.8,232.3z"/>
	<path class="st0" d="M430.3,123.4c-1.7-8.5-6.7-14.1-15.2-16.3c-4.4-1.1-8.9-1.4-13.3-1.4c-6-0.1-12,0-18,0c-0.8,0-1,0.3-1,1
		c0,13.1,0,26.1,0,39.2c0,13.1,0,26.1,0,39.2c0,0.8,0.2,1,1,1c4.5,0,8.9,0,13.4,0c0.8,0,1.1-0.2,1-1c0-10.7,0-21.5,0-32.2
		c0-0.7,0.2-0.9,0.9-0.9c2.5,0,4.9,0,7.4-0.2c2.8-0.2,5.7-0.3,8.4-1.2c6.4-2,11.4-5.8,14.1-12C431.1,133.6,431.3,128.5,430.3,123.4z
		 M415.4,131.9c-1,3-3.4,4.4-6.4,4.8c-3.4,0.5-6.9,0.3-10.3,0.4c-0.6,0-0.5-0.3-0.5-0.7c0-2.5,0-5.1,0-7.6c0-2.5,0-5.1,0-7.6
		c0-0.3-0.1-0.7,0.5-0.7c3.5,0,7-0.1,10.4,0.5C415.7,122.1,416.8,127.7,415.4,131.9z"/>
	<path class="st0" d="M252.4,136.7c-2.6-12.1-9.5-21.2-20.1-27.4c-8.4-5-17.6-6.4-27.3-5.3c-10.4,1.2-19.1,5.8-26.1,13.6
		c-6.4,7.2-9.9,15.6-10.6,25.2c-0.5,7.5,0.5,14.8,4,21.5c10.4,20.2,31.8,27.6,52,21.5c13-3.9,29.1-17.8,28.8-41.3
		C253.2,142.7,253,139.7,252.4,136.7z M210.2,180c-17.7,0-33.8-14.7-33.5-33.9c0-21.9,17.9-34.7,34.2-34.6
		c15.9,0.1,34.1,12.3,34,34.4C244.8,165.4,229.9,180,210.2,180z"/>
	<path class="st0" d="M735.3,137.7c-2.1-11.5-8.2-20.3-17.8-26.9c-8.9-6.1-19-8-29.6-6.8c-10.6,1.2-19.4,5.8-26.4,13.8
		c-6.3,7.1-9.7,15.5-10.4,25c-0.5,7.4,0.5,14.5,3.8,21.2c9.6,19,29.5,27.5,50.3,22.3c14.2-3.6,30.9-18.1,30.7-41.7
		C736,143,735.8,140.4,735.3,137.7z M692.8,180c-17.6,0-33.7-14.8-33.4-34c0.1-21.9,17.9-34.6,34.3-34.5c15.9,0.1,34.1,12.3,34,34.4
		C727.5,165.5,712.5,180,692.8,180z"/>
	<path class="st1" d="M457.1,231.8c-0.5-0.3-1-0.5-1.6-0.7c0.2-0.1,0.3-0.2,0.4-0.3c2.4-1.6,3.3-3.8,2.9-6.5
		c-0.4-2.8-2.3-4.6-5.2-5.2c-2.8-0.6-5.6-0.2-8.4-0.3c-0.6,0-0.4,0.4-0.4,0.7c0,8.6,0,17.2,0,25.8c0,0.5,0.1,0.7,0.7,0.7
		c2.5,0,5,0,7.5,0c1.1,0,2.3-0.2,3.3-0.7c3-1.3,4.7-3.6,4.8-6.9C461.1,235.4,459.8,233.1,457.1,231.8z M448,221.4
		c1.4,0.1,2.8-0.1,4.3,0.2c2.2,0.4,3.4,1.4,3.6,3.3c0.3,1.8-0.8,3.8-2.5,4.6c-1.2,0.6-2.6,0.7-3.9,0.7c-2.1,0-2.1,0-2.1-2.1
		c0-0.8,0-1.6,0-2.4c0-1.2,0-2.4,0-3.6C447.4,221.6,447.5,221.3,448,221.4z M457.9,239.7c-0.7,2.1-2.3,3.1-4.4,3.4
		c-1.1,0.2-2.3,0.2-3.1,0.2c-1,0-1.7,0-2.4,0c-0.4,0-0.6-0.1-0.6-0.6c0-3.2,0-6.3,0-9.5c0-0.3,0-0.6,0.5-0.6c2,0,4-0.1,5.9,0.4
		C457.1,233.8,458.9,236.8,457.9,239.7z"/>
</g>
</svg>
