<?xml version="1.0" encoding="utf-8"?>
<!-- Generator: Adobe Illustrator 25.2.3, SVG Export Plug-In . SVG Version: 6.00 Build 0)  -->
<svg width="30px" version="1.1" id="Capa_1" xmlns="http://www.w3.org/2000/svg" xmlns:xlink="http://www.w3.org/1999/xlink" x="0px" y="0px"
	 viewBox="0 0 512 512" style="enable-background:new 0 0 512 512;" xml:space="preserve">
<style type="text/css">
	.st0{fill:#62BF8A;}
</style>
<g>
	<path class="st0" d="M152,312h-32c-4.4,0-8,3.6-8,8v32c0,4.4,3.6,8,8,8h32c4.4,0,8-3.6,8-8v-32C160,315.6,156.4,312,152,312z
		 M144,344h-16v-16h16V344z"/>
	<path class="st0" d="M96,312H64c-4.4,0-8,3.6-8,8v32c0,4.4,3.6,8,8,8h32c4.4,0,8-3.6,8-8v-32C104,315.6,100.4,312,96,312z M88,344
		H72v-16h16V344z"/>
	<path class="st0" d="M152,368h-32c-4.4,0-8,3.6-8,8v32c0,4.4,3.6,8,8,8h32c4.4,0,8-3.6,8-8v-32C160,371.6,156.4,368,152,368z
		 M144,400h-16v-16h16V400z"/>
	<path class="st0" d="M96,368H64c-4.4,0-8,3.6-8,8v32c0,4.4,3.6,8,8,8h32c4.4,0,8-3.6,8-8v-32C104,371.6,100.4,368,96,368z M88,400
		H72v-16h16V400z"/>
	<path class="st0" d="M152,424h-32c-4.4,0-8,3.6-8,8v32c0,4.4,3.6,8,8,8h32c4.4,0,8-3.6,8-8v-32C160,427.6,156.4,424,152,424z
		 M144,456h-16v-16h16V456z"/>
	<path class="st0" d="M96,424H64c-4.4,0-8,3.6-8,8v32c0,4.4,3.6,8,8,8h32c4.4,0,8-3.6,8-8v-32C104,427.6,100.4,424,96,424z M88,456
		H72v-16h16V456z"/>
	<path class="st0" d="M208,312h-32c-4.4,0-8,3.6-8,8v88c0,4.4,3.6,8,8,8h32c4.4,0,8-3.6,8-8v-88C216,315.6,212.4,312,208,312z
		 M200,400h-16v-72h16V400z"/>
	<path class="st0" d="M208,232H64c-4.4,0-8,3.6-8,8v48c0,4.4,3.6,8,8,8h144c4.4,0,8-3.6,8-8v-48C216,235.6,212.4,232,208,232z
		 M200,280H72v-32h128V280z"/>
	<path class="st0" d="M477.7,58.3l-48-48C428.2,8.8,426.1,8,424,8H152c-4.4,0-8,3.6-8,8v184H60c-15.5,0-28,12.5-28,28v248
		c0,15.5,12.5,28,28,28h152c15.5,0,28-12.5,28-28v-36h232c4.4,0,8-3.6,8-8V64C480,61.9,479.2,59.8,477.7,58.3z M432,35.3L452.7,56
		H432V35.3z M224,476c0,6.6-5.4,12-12,12H60c-6.6,0-12-5.4-12-12V228c0-6.6,5.4-12,12-12h152c6.6,0,12,5.4,12,12V476z M464,424H240
		V228c0-15.5-12.5-28-28-28h-52V24h256v40c0,4.4,3.6,8,8,8h40V424z"/>
	<path class="st0" d="M432,88H192c-4.4,0-8,3.6-8,8s3.6,8,8,8h240c4.4,0,8-3.6,8-8S436.4,88,432,88z"/>
	<path class="st0" d="M432,112H192c-4.4,0-8,3.6-8,8s3.6,8,8,8h240c4.4,0,8-3.6,8-8S436.4,112,432,112z"/>
	<path class="st0" d="M392,144c0-4.4-3.6-8-8-8H192c-4.4,0-8,3.6-8,8s3.6,8,8,8h192C388.4,152,392,148.4,392,144z"/>
	<path class="st0" d="M416,152c4.4,0,8-3.6,8-8s-3.6-8-8-8h-8c-4.4,0-8,3.6-8,8s3.6,8,8,8H416z"/>
	<path class="st0" d="M432,200H272c-4.4,0-8,3.6-8,8s3.6,8,8,8h160c4.4,0,8-3.6,8-8S436.4,200,432,200z"/>
	<path class="st0" d="M432,224H272c-4.4,0-8,3.6-8,8s3.6,8,8,8h160c4.4,0,8-3.6,8-8S436.4,224,432,224z"/>
	<path class="st0" d="M272,264h112c4.4,0,8-3.6,8-8c0-4.4-3.6-8-8-8H272c-4.4,0-8,3.6-8,8C264,260.4,267.6,264,272,264z"/>
	<path class="st0" d="M416,264c4.4,0,8-3.6,8-8c0-4.4-3.6-8-8-8h-8c-4.4,0-8,3.6-8,8c0,4.4,3.6,8,8,8H416z"/>
	<path class="st0" d="M432,312H272c-4.4,0-8,3.6-8,8s3.6,8,8,8h160c4.4,0,8-3.6,8-8S436.4,312,432,312z"/>
	<path class="st0" d="M432,336H272c-4.4,0-8,3.6-8,8s3.6,8,8,8h160c4.4,0,8-3.6,8-8S436.4,336,432,336z"/>
	<path class="st0" d="M384,360H272c-4.4,0-8,3.6-8,8s3.6,8,8,8h112c4.4,0,8-3.6,8-8S388.4,360,384,360z"/>
	<path class="st0" d="M416,360h-8c-4.4,0-8,3.6-8,8s3.6,8,8,8h8c4.4,0,8-3.6,8-8S420.4,360,416,360z"/>
</g>
</svg>
