<?xml version="1.0" encoding="utf-8"?>
<!-- Generator: Adobe Illustrator 25.2.3, SVG Export Plug-In . SVG Version: 6.00 Build 0)  -->
<svg width="30px" version="1.1" id="Capa_1" xmlns="http://www.w3.org/2000/svg" xmlns:xlink="http://www.w3.org/1999/xlink" x="0px" y="0px"
	 viewBox="0 0 512 512" style="enable-background:new 0 0 512 512;" xml:space="preserve">
<style type="text/css">
	.st0{fill:#62BF8A;}
</style>
<g>
	<g>
		<path class="st0" d="M258.7,181.4h-63.9c-5.5,0-10,4.5-10,10v56.5c0,5.5,4.5,10,10,10h63.9c5.5,0,10-4.5,10-10v-56.5
			C268.7,185.9,264.3,181.4,258.7,181.4z M248.7,237.9h-43.9v-36.5h43.9L248.7,237.9L248.7,237.9z"/>
	</g>
</g>
<g>
	<g>
		<path class="st0" d="M376.7,181.4h-63.9c-5.5,0-10,4.5-10,10v56.5c0,5.5,4.5,10,10,10h63.9c5.5,0,10-4.5,10-10v-56.5
			C386.7,185.9,382.2,181.4,376.7,181.4z M366.7,237.9h-43.9v-36.5h43.9V237.9z"/>
	</g>
</g>
<g>
	<g>
		<path class="st0" d="M383.8,277.1c-0.5-0.5-1-0.9-1.5-1.2c-0.5-0.4-1.1-0.7-1.7-0.9c-0.6-0.2-1.2-0.5-1.9-0.6
			c-1.3-0.3-2.6-0.3-3.9,0c-0.6,0.1-1.3,0.3-1.9,0.6c-0.6,0.2-1.2,0.6-1.7,0.9c-0.6,0.4-1.1,0.8-1.5,1.2c-1.9,1.9-2.9,4.4-2.9,7.1
			c0,0.6,0.1,1.3,0.2,2c0.1,0.6,0.3,1.3,0.6,1.9c0.2,0.6,0.6,1.2,0.9,1.7c0.4,0.5,0.8,1.1,1.2,1.5s1,0.9,1.5,1.2
			c0.5,0.4,1.1,0.7,1.7,0.9c0.6,0.2,1.2,0.4,1.9,0.6s1.3,0.2,2,0.2c0.6,0,1.3-0.1,2-0.2c0.6-0.1,1.3-0.3,1.9-0.6
			c0.6-0.2,1.2-0.6,1.7-0.9c0.5-0.4,1.1-0.8,1.5-1.2c0.5-0.5,0.9-1,1.2-1.5c0.4-0.5,0.7-1.1,0.9-1.7c0.2-0.6,0.4-1.2,0.6-1.9
			c0.1-0.6,0.2-1.3,0.2-2C386.7,281.6,385.6,279,383.8,277.1z"/>
	</g>
</g>
<g>
	<g>
		<path class="st0" d="M510.3,389.7c-0.2-0.7-0.4-1.3-0.7-1.9c-5.5-15.1-20-25.2-36-25.2c-4.4,0-8.8,0.8-13,2.3
			c-8.6,3.1-20.5,7.3-34.2,11.8V214.1l7,6.5c3.8,3.6,9.8,3.6,13.6,0L479,191c2-1.9,3.2-4.5,3.2-7.3c0-2.8-1.2-5.4-3.2-7.3L292.6,2.7
			c-3.8-3.6-9.8-3.6-13.6,0L92.5,176.3c-2,1.9-3.2,4.5-3.2,7.3c0,2.8,1.2,5.4,3.2,7.3l31.9,29.7c1.9,1.8,4.4,2.7,6.8,2.7
			c2.5,0,4.9-0.9,6.8-2.7l7-6.5v112.8c-11.5,10.5-26.7,13.2-47.1,13.5v-21.1c0-5.5-4.5-10-10-10H10c-5.5,0-10,4.5-10,10V502
			c0,5.5,4.5,10,10,10h78c5.5,0,10-4.5,10-10v-32h32.9c21.4,0,43.2,9.4,64.2,18.5c20.6,8.9,40,17.3,59.2,17.3c0.2,0,0.3,0,0.5,0
			c27-1.3,89.6-10.5,205.9-58c9.2-3.8,18.7-7.7,28.1-11.8c0,0,0,0,0,0C506.7,428.4,516,408.5,510.3,389.7z M78,350.4
			C78,350.4,78,350.4,78,350.4V460v32H59V388.2c0-5.5-4.5-10-10-10s-10,4.5-10,10V492H20V329.3h58C78,329.3,78,350.4,78,350.4z
			 M131.2,199.7l-17.2-16l171.7-160l171.8,160l-17.2,16L292.6,61.8c-3.8-3.6-9.8-3.6-13.6,0L131.2,199.7z M344,316
			c-0.1,0-0.2,0-0.2,0l-127.2-13c0,0,0,0,0,0c-1-0.1-2-0.2-3-0.3c-0.2,0-0.5,0-0.7-0.1c-0.9-0.1-1.8-0.1-2.7-0.2c-0.1,0-0.2,0-0.3,0
			c-15.7-0.7-31.1,2.8-44.7,10v-18.2h178.6c5.5,0,10-4.5,10-10s-4.5-10-10-10H165.1v-78.8L285.8,82.8l120.7,112.7v187.5
			c-34.8,10.6-79.5,22.2-112.4,23.7c-0.1,0-0.2,0-0.4,0c-0.9,0-1.7,0.1-2.6,0.1c-0.2,0-0.5,0-0.7,0c-1,0-2,0-2.9,0
			c-13.1,0-18.2-9.8-20.1-18.7c12,0,21.7,0,29.5,0c9.9,0,16.5,0,20.4,0c0.3,0,0.5,0,0.8,0s0.5,0,0.7,0c1.1,0,1.9,0,2.3,0h0
			c16.7,0,32-8.1,40.9-21.4c0.6-0.9,1.2-1.8,1.7-2.7c0.2-0.3,0.4-0.7,0.5-1c3.7-6.8,5.6-14.5,5.6-22.4
			C369.9,332.6,366.5,318.8,344,316z M480.9,417.8c-3.8,1.6-7.7,3.3-11.5,4.9l-7.1-12.5c-2.7-4.8-8.8-6.5-13.6-3.8
			s-6.5,8.8-3.8,13.6l5.9,10.3c-111.6,45.3-171,54.3-196.7,55.5c-15-0.1-32.5-7.7-51-15.7c-21.8-9.5-46.6-20.2-72.1-20.2H98v-89.6
			c20.8-0.3,43.7-2.8,61.5-19.7c0.8-0.8,1.6-1.5,2.5-2.2c0.4-0.4,0.9-0.7,1.3-1.1c0.5-0.4,1-0.8,1.5-1.2c0.5-0.4,1.1-0.8,1.6-1.2
			c0.4-0.3,0.8-0.6,1.2-0.9c0.6-0.4,1.3-0.9,2-1.3c0.3-0.2,0.6-0.4,0.9-0.6c0.8-0.5,1.6-0.9,2.4-1.4c0.2-0.1,0.4-0.2,0.6-0.3
			c0.9-0.5,1.8-1,2.8-1.4c0.1,0,0.2-0.1,0.3-0.1c7.4-3.6,15.3-5.8,23.5-6.5c0,0,0,0,0,0c1.2-0.1,2.3-0.2,3.5-0.2c0.2,0,0.3,0,0.5,0
			c1,0,2,0,3,0c0.4,0,0.9,0,1.3,0.1c0.8,0,1.5,0,2.3,0.1c1.2,0.1,2.4,0.2,3.6,0.4c0.1,0,0.2,0,0.2,0l85.3,8.7v16.1
			c0,5.5,4.5,10,10,10s10-4.5,10-10v-14.1l21.9,2.2c1.6,0.2,2.8,0.4,3.8,0.7c4.5,1.1,4.5,2.5,4.5,4c0,4.9-1.2,9.5-3.5,13.6
			c-0.3,0.5-0.6,1.1-1,1.6c-0.7,1-1.5,2-2.3,2.9c-0.4,0.5-0.8,0.9-1.3,1.3c-5.3,5.2-12.7,8.2-20.7,8.2c-0.4,0-1,0-2,0
			c-0.2,0-0.5,0-0.7,0s-0.5,0-0.8,0c-4.7,0-13.8,0-28.1,0c-9,0-20,0-33.3,0c0,0,0,0,0,0c-2.7,0-5.2,1.1-7.1,3
			c-1.9,1.9-2.9,4.5-2.9,7.2c0.4,29.5,16.6,48.5,41.2,48.5c1.1,0,2.2,0,3.3,0c0.3,0,0.6,0,0.8,0c1,0,1.9-0.1,2.9-0.1
			c0.1,0,0.3,0,0.4,0c55.3-2.5,138.3-30.5,172.5-42.9c2-0.7,4.1-1.1,6.2-1.1c7.7,0,14.6,4.8,17.2,12.1c0.1,0.3,0.2,0.6,0.3,0.9
			C493.9,404.5,489.5,414.1,480.9,417.8z"/>
	</g>
</g>
<g>
	<g>
		<path class="st0" d="M58.8,353.2c-0.1-0.6-0.3-1.3-0.6-1.9c-0.2-0.6-0.6-1.2-0.9-1.7c-0.4-0.5-0.8-1.1-1.2-1.5s-1-0.9-1.5-1.2
			c-0.5-0.4-1.1-0.7-1.7-0.9c-0.6-0.2-1.2-0.5-1.9-0.6c-1.3-0.3-2.6-0.3-3.9,0c-0.6,0.1-1.3,0.3-1.9,0.6c-0.6,0.2-1.2,0.6-1.7,0.9
			c-0.5,0.4-1.1,0.8-1.5,1.2s-0.9,1-1.2,1.5c-0.4,0.5-0.7,1.1-0.9,1.7c-0.2,0.6-0.4,1.2-0.6,1.9c-0.1,0.6-0.2,1.3-0.2,2
			c0,0.6,0.1,1.3,0.2,2s0.3,1.3,0.6,1.9c0.2,0.6,0.6,1.2,0.9,1.7c0.4,0.5,0.8,1.1,1.2,1.5c0.5,0.5,1,0.9,1.5,1.2
			c0.5,0.4,1.1,0.7,1.7,0.9c0.6,0.2,1.2,0.4,1.9,0.6s1.3,0.2,2,0.2s1.3-0.1,2-0.2c0.6-0.1,1.3-0.3,1.9-0.6c0.6-0.2,1.2-0.6,1.7-0.9
			c0.5-0.4,1.1-0.8,1.5-1.2s0.9-1,1.2-1.5c0.4-0.5,0.7-1.1,0.9-1.7c0.2-0.6,0.4-1.2,0.6-1.9c0.1-0.6,0.2-1.3,0.2-2
			C59,354.5,58.9,353.8,58.8,353.2z"/>
	</g>
</g>
</svg>
