<?xml version="1.0" encoding="utf-8"?>
<!-- Generator: Adobe Illustrator 25.2.3, SVG Export Plug-In . SVG Version: 6.00 Build 0)  -->
<svg width="30px" version="1.1" id="Capa_1" xmlns="http://www.w3.org/2000/svg" xmlns:xlink="http://www.w3.org/1999/xlink" x="0px" y="0px"
	 viewBox="0 0 512 512" style="enable-background:new 0 0 512 512;" xml:space="preserve">
<style type="text/css">
	.st0{fill:#62BF8A;}
</style>
<g id="Solid">
	<path class="st0" d="M48,368c6.4,0,12.5-2.5,17-7l135-135l55,55c9.4,9.4,24.6,9.4,33.9,0c0,0,0,0,0,0l151-151l0,54
		c0,13.3,10.7,24,24,24s24-10.7,24-24l0-112c0-13.3-10.7-24-24-24H352c-13.3,0-24,10.7-24,24s10.7,24,24,24h54.1L272,230.1l-55-55
		c-9.4-9.4-24.6-9.4-33.9,0c0,0,0,0,0,0L31,327c-9.4,9.4-9.4,24.6,0,33.9C35.5,365.5,41.6,368,48,368z"/>
	<path class="st0" d="M464,416H48c-13.3,0-24,10.7-24,24s10.7,24,24,24h416c13.3,0,24-10.7,24-24S477.3,416,464,416L464,416z"/>
</g>
</svg>
